<?xml version="1.0" encoding="utf-8"?>
<!-- Generator: Adobe Illustrator 23.0.0, SVG Export Plug-In . SVG Version: 6.00 Build 0)  -->
<svg version="1.1" id="Слой_1" xmlns="http://www.w3.org/2000/svg" xmlns:xlink="http://www.w3.org/1999/xlink" x="0px" y="0px"
	 viewBox="0 0 127.3 38.4" style="enable-background:new 0 0 127.3 38.4;" xml:space="preserve">
<style type="text/css">
	.st0{fill:#FFFFFF;}
	.st1{fill:url(#SVGID_1_);}
	.st2{fill:url(#SVGID_2_);}
</style>
<g>
	<path class="st0" d="M1.9,32.5V7.5h16.7v4.7H7.5v5.2h9.9v4.7H7.5v10.3H1.9z"/>
	<path class="st0" d="M39.2,27.6v4.8H22.5V7.5h5.6v20.1H39.2z"/>
	<path class="st0" d="M42.8,7.5h5.6v24.9h-5.6V7.5z"/>
	<path class="st0" d="M68.5,32.5c-0.7-1.4-1.5-2.8-2.3-4.2c-0.8-1.4-1.8-2.6-2.9-3.6c-0.3,0.4-0.8,0.9-1.3,1.5s-1,1.4-1.5,2.1
		c-0.5,0.7-1,1.5-1.4,2.3s-0.8,1.4-1,1.9h-6.4c1-1.9,2.3-4,3.7-6c1.4-2.1,3-4.3,4.8-6.6L52,7.5h6.8l4.8,7.2l4.9-7.2h6.4l-8.1,12
		c2.1,2.7,3.9,5.1,5.2,7.3c1.4,2.2,2.5,4.1,3.2,5.6H68.5z"/>
</g>
<g>
	<g>
		
			<linearGradient id="SVGID_1_" gradientUnits="userSpaceOnUse" x1="76.1748" y1="19.3304" x2="126.2861" y2="19.3304" gradientTransform="matrix(1 0 0 -1 0 39.276)">
			<stop  offset="0" style="stop-color:#FF55A5"/>
			<stop  offset="0.5934" style="stop-color:#FF5779"/>
			<stop  offset="1" style="stop-color:#FF5860"/>
		</linearGradient>
		<path class="st1" d="M89.4,11.8c-2.6,0-4.5,0.7-5.7,2.2c-1.2,1.5-1.7,3.4-1.7,6c0,1.2,0.1,2.3,0.4,3.3c0.3,1,0.7,1.9,1.3,2.6
			c0.6,0.7,1.3,1.3,2.2,1.7c0.9,0.4,1.9,0.6,3,0.6c0.6,0,1.2,0,1.6,0c0.4,0,0.8-0.1,1.2-0.1v-8.7h5.6v12.3c-0.7,0.3-1.8,0.5-3.2,0.8
			c-1.5,0.3-3.3,0.5-5.5,0.5c-1.9,0-3.6-0.3-5.1-0.9c-1.5-0.6-2.8-1.4-3.9-2.5c-1.1-1.1-1.9-2.5-2.5-4.1c-0.6-1.6-0.9-3.4-0.9-5.5
			c0-2.1,0.3-3.9,1-5.5c0.6-1.6,1.5-3,2.7-4.1c1.1-1.1,2.5-2,4-2.5c1.5-0.6,3.2-0.9,4.9-0.9c1.2,0,2.2,0.1,3.2,0.2
			c0.9,0.2,1.8,0.3,2.4,0.5C95,7.9,95.5,8.1,96,8.4c0.4,0.2,0.8,0.4,1,0.5l-1.6,4.5c-0.8-0.4-1.7-0.8-2.6-1.1
			C91.7,12,90.6,11.8,89.4,11.8z"/>
		
			<linearGradient id="SVGID_2_" gradientUnits="userSpaceOnUse" x1="76.1748" y1="19.3124" x2="126.2861" y2="19.3124" gradientTransform="matrix(1 0 0 -1 0 39.276)">
			<stop  offset="0" style="stop-color:#FF55A5"/>
			<stop  offset="0.5934" style="stop-color:#FF5779"/>
			<stop  offset="1" style="stop-color:#FF5860"/>
		</linearGradient>
		<path class="st2" d="M126.3,20c0,2.1-0.3,4-1,5.6c-0.6,1.6-1.5,3-2.6,4.1c-1.1,1.1-2.4,1.9-3.9,2.5c-1.5,0.6-3.2,0.8-4.9,0.8
			c-1.7,0-3.3-0.3-4.8-0.8c-1.5-0.6-2.8-1.4-4-2.5c-1.1-1.1-2-2.4-2.7-4.1c-0.6-1.6-1-3.5-1-5.6c0-2.1,0.3-4,1-5.6s1.6-3,2.7-4.1
			c1.1-1.1,2.5-1.9,4-2.5c1.5-0.6,3.1-0.8,4.7-0.8c1.7,0,3.3,0.3,4.8,0.8s2.8,1.4,4,2.5c1.1,1.1,2,2.5,2.7,4.1S126.3,17.8,126.3,20z
			 M107.2,20c0,1.2,0.2,2.3,0.5,3.3c0.3,1,0.7,1.8,1.3,2.5c0.6,0.7,1.3,1.3,2.1,1.6c0.8,0.4,1.8,0.6,2.8,0.6c1,0,2-0.2,2.8-0.6
			s1.5-0.9,2.1-1.6c0.6-0.7,1-1.6,1.3-2.5c0.3-1,0.5-2.1,0.5-3.3s-0.2-2.3-0.5-3.3c-0.3-1-0.7-1.8-1.3-2.6c-0.6-0.7-1.3-1.3-2.1-1.6
			c-0.8-0.4-1.8-0.6-2.8-0.6c-1.1,0-2,0.2-2.8,0.6c-0.8,0.4-1.5,0.9-2.1,1.7c-0.6,0.7-1,1.6-1.3,2.6C107.4,17.7,107.2,18.8,107.2,20
			z"/>
	</g>
</g>
</svg>
