<?xml version="1.0"?>
<svg xmlns="http://www.w3.org/2000/svg" height="512px" viewBox="-15 0 478 478" width="512px"><path d="m0 115.820312v267.929688c-.03125 6.988281 2.738281 13.703125 7.695312 18.636719 4.953126 4.933593 11.675782 7.675781 18.667969 7.613281h126.257813l-14.167969 52h-28.800781c-4.417969 0-8 3.582031-8 8s3.582031 8 8 8h228.691406c4.417969 0 8-3.582031 8-8s-3.582031-8-8-8h-28.796875l-14.171875-52h126.261719c6.992187.0625 13.714843-2.679688 18.667969-7.613281 4.957031-4.933594 7.726562-11.648438 7.695312-18.636719v-267.929688c0-14.664062-11.699219-26.820312-26.363281-26.820312h-65.359375c-.351563-1.421875-1.011719-2.75-1.929688-3.890625l-73.902344-82.296875c-1.5-1.730469-3.65625-2.75-5.945312-2.8125h-147.21875c-19.675781 0-35.28125 16.449219-35.28125 36.121094v52.878906h-65.636719c-14.664062 0-26.363281 12.15625-26.363281 26.820312zm292.949219 346.179688h-137.902344l14.171875-52h109.558594zm128.6875-68h-395.273438c-2.75.066406-5.40625-.988281-7.359375-2.921875-1.957031-1.933594-3.039062-4.578125-3.003906-7.328125v-44.75h416v44.75c.035156 2.75-1.046875 5.394531-3.003906 7.328125-1.953125 1.933594-4.609375 2.988281-7.359375 2.921875zm-138.636719-364.707031 42.039062 47.707031h-36.699218c-3.21875 0-5.339844-3.050781-5.339844-6.269531zm149 86.527343v207.179688h-76v-218h65.636719c5.847656.132812 10.484375 4.976562 10.363281 10.820312zm-304.71875-99.820312h139.71875v54.730469c0 12.042969 9.300781 22.269531 21.34375 22.269531h51.097656l.5625.640625v229.359375h-232.003906v-286.878906c0-10.851563 8.429688-20.121094 19.28125-20.121094zm-35.28125 307h-76v-207.179688c-.121094-5.84375 4.515625-10.6875 10.363281-10.820312h65.636719zm0 0" fill="#e69757"/><path d="m148.339844 246.710938 73.308594 23.675781c.773437.253906 1.582031.382812 2.398437.382812.824219 0 1.644531-.128906 2.429687-.382812l73.191407-23.675781c3.257812-1.085938 5.421875-4.175782 5.332031-7.609376v-100.203124c.085938-3.433594-2.082031-6.523438-5.339844-7.613282l-73.308594-23.671875c-1.578124-.515625-3.277343-.515625-4.855468 0l-73.179688 23.671875c-3.253906 1.09375-5.414062 4.183594-5.316406 7.613282v100.203124c-.085938 3.433594 2.082031 6.523438 5.339844 7.609376zm10.660156-96.824219 56 18.191406v83.386719l-56-18.195313zm72 102.222656v-83.382813l58-18.839843v83.382812zm-7-128.476563 47.34375 15.265626-47.34375 15.273437-47.34375-15.273437zm0 0" fill="#e69757"/></svg>
